<svg xmlns="http://www.w3.org/2000/svg" version="1.1" xmlns:xlink="http://www.w3.org/1999/xlink" xmlns:svgjs="http://svgjs.com/svgjs" width="38" height="34"><svg width="38" height="34" viewBox="0 0 38 34" fill="none" xmlns="http://www.w3.org/2000/svg">
<g clip-path="url(#clip0_4_9)">
<path d="M10.1771 12.0613C10.7732 11.2682 12.0044 11.4178 12.3932 12.3306L18.0795 25.6804C18.4683 26.5932 17.7231 27.5846 16.7382 27.4649L2.33386 25.7145C1.34894 25.5948 0.862931 24.4538 1.45904 23.6607L10.1771 12.0613Z" fill="#7CE6D7"></path>
<path d="M31.6228 8.02637C32.4773 8.5305 32.4656 9.77065 31.6018 10.2586L18.9678 17.3954C18.104 17.8834 17.0358 17.2532 17.0451 16.2611L17.1815 1.7514C17.1908 0.759284 18.2706 0.149301 19.1252 0.653433L31.6228 8.02637Z" fill="#F7DC69"></path>
<path d="M35.8073 29.2002C36.4299 29.9726 35.9829 31.1294 35.0026 31.2825L20.6659 33.5205C19.6857 33.6736 18.9073 32.708 19.2649 31.7825L24.4951 18.2476C24.8527 17.3221 26.078 17.1308 26.7007 17.9032L35.8073 29.2002Z" fill="#E684C3"></path>
</g>
<defs>
<clipPath id="SvgjsClipPath1000">
<rect width="38" height="34" fill="white"></rect>
</clipPath>
</defs>
</svg><style>@media (prefers-color-scheme: light) { :root { filter: none; } }
</style></svg>