<svg width="102" height="58" viewBox="0 0 102 58" fill="none" xmlns="http://www.w3.org/2000/svg">
<path d="M7.57579 52V35.1277H18.9448V38.0688H11.143V42.0892H18.3599V45.0303H11.143V49.0589H18.9778V52H7.57579ZM33.5124 39.3458L29.0883 52H25.1339L20.7099 39.3458H24.4172L27.0452 48.3998H27.177L29.7968 39.3458H33.5124ZM40.6674 52.2472C39.3658 52.2472 38.2453 51.9835 37.3062 51.4563C36.3725 50.9235 35.653 50.1711 35.1477 49.1989C34.6424 48.2213 34.3898 47.0652 34.3898 45.7306C34.3898 44.4289 34.6424 43.2865 35.1477 42.3034C35.653 41.3203 36.3642 40.5541 37.2814 40.0049C38.2041 39.4556 39.2861 39.181 40.5274 39.181C41.3622 39.181 42.1394 39.3156 42.8588 39.5847C43.5838 39.8483 44.2154 40.2465 44.7537 40.7793C45.2974 41.312 45.7203 41.9821 46.0224 42.7895C46.3245 43.5913 46.4755 44.5305 46.4755 45.607V46.5709H35.7903V44.3959H43.1719C43.1719 43.8907 43.0621 43.443 42.8424 43.0531C42.6227 42.6631 42.3179 42.3583 41.9279 42.1386C41.5434 41.9134 41.0958 41.8008 40.585 41.8008C40.0523 41.8008 39.58 41.9244 39.168 42.1716C38.7616 42.4132 38.4431 42.74 38.2124 43.1519C37.9817 43.5584 37.8636 44.0115 37.8581 44.5113V46.5791C37.8581 47.2052 37.9735 47.7462 38.2041 48.2021C38.4403 48.658 38.7726 49.0095 39.201 49.2566C39.6294 49.5038 40.1374 49.6273 40.7251 49.6273C41.115 49.6273 41.472 49.5724 41.7961 49.4626C42.1201 49.3527 42.3975 49.188 42.6282 48.9683C42.8588 48.7486 43.0346 48.4795 43.1554 48.1609L46.4014 48.3751C46.2366 49.155 45.8988 49.836 45.388 50.4182C44.8827 50.9949 44.2292 51.4453 43.4273 51.7693C42.6309 52.0879 41.711 52.2472 40.6674 52.2472ZM52.2754 44.6843V52H48.7658V39.3458H52.1106V41.5784H52.2589C52.539 40.8424 53.0086 40.2603 53.6676 39.8319C54.3267 39.398 55.1258 39.181 56.065 39.181C56.9438 39.181 57.71 39.3733 58.3635 39.7577C59.0171 40.1422 59.5252 40.6914 59.8876 41.4054C60.2501 42.1139 60.4314 42.9597 60.4314 43.9428V52H56.9218V44.569C56.9273 43.7945 56.7296 43.1904 56.3286 42.7565C55.9277 42.3171 55.3757 42.0974 54.6727 42.0974C54.2004 42.0974 53.783 42.199 53.4205 42.4023C53.0635 42.6055 52.7834 42.902 52.5802 43.292C52.3824 43.6765 52.2808 44.1406 52.2754 44.6843ZM69.9282 39.3458V41.9821H62.3077V39.3458H69.9282ZM64.0377 36.3141H67.5473V48.1115C67.5473 48.4355 67.5967 48.6882 67.6956 48.8694C67.7945 49.0452 67.9318 49.1687 68.1075 49.2401C68.2888 49.3115 68.4975 49.3472 68.7336 49.3472C68.8984 49.3472 69.0632 49.3335 69.2279 49.306C69.3927 49.2731 69.519 49.2484 69.6069 49.2319L70.1589 51.8435C69.9831 51.8984 69.736 51.9616 69.4174 52.033C69.0989 52.1098 68.7117 52.1565 68.2558 52.173C67.41 52.206 66.6685 52.0934 66.0314 51.8352C65.3998 51.5771 64.9083 51.1762 64.5568 50.6324C64.2053 50.0887 64.0322 49.4022 64.0377 48.5728V36.3141ZM75.9958 35.1277V52H72.4862V35.1277H75.9958ZM80.9739 56.7453C80.529 56.7453 80.1116 56.7096 79.7216 56.6382C79.3372 56.5723 79.0186 56.4872 78.766 56.3828L79.5568 53.763C79.9688 53.8893 80.3395 53.958 80.669 53.969C81.0041 53.98 81.2924 53.9031 81.5341 53.7383C81.7812 53.5735 81.9817 53.2934 82.1355 52.898L82.3414 52.3625L77.8021 39.3458H81.4929L84.1127 48.6387H84.2445L86.889 39.3458H90.6046L85.6862 53.3676C85.4501 54.0486 85.1288 54.6418 84.7223 55.1471C84.3214 55.6579 83.8134 56.0506 83.1982 56.3252C82.5831 56.6053 81.8416 56.7453 80.9739 56.7453Z" fill="black"/>
<path d="M71.0201 14.7074C71.6162 13.9142 72.8474 14.0638 73.2362 14.9766L78.9225 28.3264C79.3113 29.2392 78.5661 30.2306 77.5812 30.1109L63.1768 28.3605C62.1919 28.2408 61.7059 27.0998 62.302 26.3067L71.0201 14.7074Z" fill="#7CE6D7"/>
<path d="M92.4657 10.6724C93.3203 11.1765 93.3086 12.4167 92.4448 12.9046L79.8108 20.0414C78.947 20.5294 77.8788 19.8992 77.8881 18.9071L78.0245 4.39741C78.0338 3.4053 79.1136 2.79531 79.9681 3.29945L92.4657 10.6724Z" fill="#F7DC69"/>
<path d="M96.6503 31.8462C97.2729 32.6186 96.8259 33.7754 95.8456 33.9285L81.5089 36.1665C80.5286 36.3196 79.7503 35.354 80.1079 34.4286L85.338 20.8936C85.6957 19.9681 86.921 19.7768 87.5437 20.5493L96.6503 31.8462Z" fill="#E684C3"/>
</svg>
